<?xml version="1.0" encoding="UTF-8" standalone="no"?>
<svg
  width="64"
  height="8"
  viewBox="0 0 16.933333 2.1166667"
  version="1.1"
  xmlns="http://www.w3.org/2000/svg"
  xmlns:svg="http://www.w3.org/2000/svg">
  <g>
    <g transform="matrix(0.10875692,0,0,0.10875692,-3.5720965,-8.8712219)">
      <path
        d="m 32.844773,94.048034 4.832954,-7.443642 h -4.692869 v -1.08248 h 6.170136 v 0.980599 l -4.966673,7.443642 h 5.106759 v 1.08248 h -6.450307 z m 11.073133,1.165257 q -1.610985,0 -2.394191,-1.216198 -0.783206,-1.20983 -0.783206,-3.712269 0,-2.502439 0.789573,-3.71227 0.795941,-1.222565 2.387824,-1.222565 0.783206,0 1.388121,0.292906 0.604915,0.292906 1.012437,0.929659 0.783206,1.222566 0.783206,3.71227 0,2.483336 -0.783206,3.705902 -0.407522,0.636753 -1.012437,0.929659 -0.604915,0.292906 -1.388121,0.292906 z m 0,-1.044274 q 0.980599,0 1.413591,-0.897822 0.426625,-0.872351 0.426625,-2.986371 0,-2.11402 -0.426625,-2.992739 -0.432992,-0.897822 -1.413591,-0.897822 -0.967865,0 -1.400857,0.897822 -0.432992,0.916924 -0.432992,2.992739 0,2.069447 0.432992,2.986371 0.432992,0.897822 1.400857,0.897822 z m 4.527313,2.069447 h 6.6477 v 0.764103 h -6.6477 z"
        style="font-size:13.0407px;font-family:Hack;-inkscape-font-specification:'Hack, Normal';fill:#999999;stroke-width:0.264583"
      />
      <path
        d="m 56.856793,85.521912 h 5.921802 v 1.655558 h -4.043381 v 2.114019 h 3.680432 v 1.655558 h -3.680432 v 4.081586 h -1.878421 z m 10.614671,9.691379 q -1.012437,0 -1.757438,-0.452094 -0.738633,-0.458462 -1.139788,-1.298976 -0.401154,-0.840514 -0.401154,-1.986669 0,-1.146155 0.401154,-1.986669 0.407522,-0.846882 1.152523,-1.305344 0.751369,-0.458462 1.776541,-0.458462 1.012437,0 1.744703,0.452095 0.732266,0.445727 1.127052,1.279873 0.401155,0.834146 0.401155,1.980302 0,1.165257 -0.407522,2.012139 -0.401154,0.846881 -1.139788,1.305343 -0.738633,0.458462 -1.757438,0.458462 z m 0.0064,-1.515472 q 0.655855,0 1.044274,-0.598547 0.38842,-0.604916 0.38842,-1.630088 0,-1.031539 -0.38842,-1.630087 -0.388419,-0.598548 -1.044274,-0.598548 -0.662223,0 -1.050643,0.604915 -0.388419,0.598548 -0.388419,1.62372 0,1.025172 0.388419,1.630088 0.38842,0.598547 1.050643,0.598547 z M 72.934804,87.897 h 1.681028 l 0.184658,1.10795 q 0.273804,-0.604915 0.834146,-0.942394 0.566711,-0.337479 1.324447,-0.337479 0.783206,0 1.451796,0.362949 v 1.776541 q -0.61765,-0.560343 -1.617352,-0.560343 -0.808676,0 -1.311711,0.369317 -0.503035,0.369317 -0.624018,1.063377 -0.03184,0.165556 -0.04457,0.401155 -0.01274,0.235598 -0.01274,0.604915 v 3.285645 h -1.865686 z m 6.838726,0 h 1.171625 l 0.184659,0.738634 q 0.159188,-0.426625 0.503034,-0.668591 0.343847,-0.241966 0.770471,-0.241966 0.452095,0 0.808677,0.261069 0.356581,0.254701 0.432992,0.624018 0.413889,-0.885087 1.362651,-0.885087 0.897821,0 1.248036,0.630385 0.350214,0.636753 0.350214,2.65526 v 4.017911 H 85.077682 V 90.45038 q 0,-0.776839 -0.120983,-1.05701 -0.120983,-0.273804 -0.445727,-0.273804 -0.312009,0 -0.432992,0.267436 -0.133719,0.292907 -0.133719,1.063378 v 4.578253 H 82.435157 V 90.45038 q 0,-0.751369 -0.127351,-1.05701 -0.120983,-0.273804 -0.439359,-0.273804 -0.324744,0 -0.43936,0.254701 -0.12735,0.254701 -0.12735,1.076113 v 4.578253 H 79.77353 Z m 10.41091,7.316291 q -1.10795,0 -1.795643,-0.630385 -0.681325,-0.636753 -0.681325,-1.827481 0,-0.751368 0.267436,-1.222565 0.273803,-0.477565 0.738633,-0.738634 0.471197,-0.261069 1.063378,-0.356581 0.59218,-0.101881 1.241668,-0.101881 h 1.292608 v -0.312009 q 0,-0.382052 -0.203761,-0.579445 -0.197393,-0.197393 -0.51577,-0.267436 -0.312009,-0.07004 -0.64312,-0.07004 -0.674958,0 -1.298976,0.184658 -0.61765,0.184659 -1.235301,0.522138 v -1.591883 q 0.662223,-0.267436 1.311711,-0.382051 0.655856,-0.120983 1.324446,-0.120983 1.171626,0 1.852951,0.337479 0.681326,0.331111 0.967865,1.031539 0.292906,0.694061 0.292906,1.770173 0,0.248334 -0.01274,0.636753 -0.0064,0.38842 -0.0064,0.776839 0,0.343847 -0.0064,0.649488 -0.0064,0.305641 -0.0064,0.51577 0,0.184658 0.0191,0.483932 0.0191,0.292906 0.08915,0.598548 0.07004,0.305641 0.216496,0.509402 h -1.846584 q -0.120983,-0.203761 -0.178291,-0.382052 -0.05731,-0.17829 -0.08278,-0.413889 -0.375684,0.503035 -0.942394,0.745001 -0.560343,0.235598 -1.222566,0.235598 z m 0.611283,-1.292608 q 0.585813,0 0.910557,-0.318376 0.331111,-0.324744 0.46483,-0.808677 0.140085,-0.490299 0.140085,-0.986967 v -0.12735 h -0.745001 q -0.439359,0 -0.872351,0.06368 -0.432992,0.05731 -0.719531,0.299274 -0.280171,0.235598 -0.280171,0.783206 0,0.522137 0.286538,0.808676 0.292907,0.286539 0.815044,0.286539 z m 9.423947,1.13342 q -1.050646,0 -1.649193,-0.216496 -0.598548,-0.216496 -0.846882,-0.745001 -0.241966,-0.528505 -0.241966,-1.451796 V 89.329694 H 95.660516 V 87.897 h 1.821113 v -1.948464 l 1.865686,-0.827778 V 87.897 h 2.438765 v 1.432694 h -2.438765 v 3.400261 q 0,0.471197 0.235599,0.681326 0.241966,0.210128 0.770466,0.210128 h 1.4327 v 1.432694 z m 3.45756,-9.532191 h 2.01214 q 2.33689,0 3.35569,1.10795 0.50304,0.547608 0.7641,1.451797 0.26107,0.897821 0.26107,2.19043 0,2.515174 -1.02517,3.635859 -1.02517,1.120685 -3.35569,1.120685 h -2.01214 z m 2.38783,7.812958 q 1.10795,0 1.57914,-0.700428 0.4712,-0.700428 0.4712,-2.368721 0,-1.655557 -0.4712,-2.355986 -0.46483,-0.69406 -1.57914,-0.69406 h -0.50941 v 6.119195 z m 7.6474,1.878421 q -0.99333,0 -1.51547,-0.681325 -0.52214,-0.687693 -0.52214,-1.993037 V 87.897 h 1.86569 v 4.35539 q 0,1.432694 0.87872,1.432694 0.53487,0 0.82778,-0.445727 0.29927,-0.445727 0.29927,-1.248035 V 87.897 h 1.86569 v 7.131633 h -1.68103 l -0.18466,-1.05701 q -0.42662,1.241668 -1.83385,1.241668 z M 120.04178,87.897 h 1.68103 l 0.18466,1.10795 q 0.2738,-0.604915 0.83415,-0.942394 0.56671,-0.337479 1.32444,-0.337479 0.78321,0 1.4518,0.362949 v 1.776541 q -0.61765,-0.560343 -1.61735,-0.560343 -0.80868,0 -1.31171,0.369317 -0.50304,0.369317 -0.62402,1.063377 -0.0318,0.165556 -0.0446,0.401155 -0.0127,0.235598 -0.0127,0.604915 v 3.285645 h -1.86569 z m 9.39848,7.316291 q -1.10795,0 -1.79565,-0.630385 -0.68132,-0.636753 -0.68132,-1.827481 0,-0.751368 0.26743,-1.222565 0.27381,-0.477565 0.73864,-0.738634 0.47119,-0.261069 1.06337,-0.356581 0.59218,-0.101881 1.24167,-0.101881 h 1.29261 v -0.312009 q 0,-0.382052 -0.20376,-0.579445 -0.19739,-0.197393 -0.51577,-0.267436 -0.31201,-0.07004 -0.64312,-0.07004 -0.67496,0 -1.29898,0.184658 -0.61765,0.184659 -1.2353,0.522138 v -1.591883 q 0.66223,-0.267436 1.31171,-0.382051 0.65586,-0.120983 1.32445,-0.120983 1.17163,0 1.85295,0.337479 0.68133,0.331111 0.96787,1.031539 0.2929,0.694061 0.2929,1.770173 0,0.248334 -0.0127,0.636753 -0.006,0.38842 -0.006,0.776839 0,0.343847 -0.006,0.649488 -0.006,0.305641 -0.006,0.51577 0,0.184658 0.0191,0.483932 0.0191,0.292906 0.0891,0.598548 0.07,0.305641 0.2165,0.509402 h -1.84659 q -0.12098,-0.203761 -0.17829,-0.382052 -0.0573,-0.17829 -0.0828,-0.413889 -0.37569,0.503035 -0.9424,0.745001 -0.56034,0.235598 -1.22256,0.235598 z m 0.61128,-1.292608 q 0.58581,0 0.91056,-0.318376 0.33111,-0.324744 0.46483,-0.808677 0.14008,-0.490299 0.14008,-0.986967 v -0.12735 h -0.745 q -0.43936,0 -0.87235,0.06368 -0.43299,0.05731 -0.71953,0.299274 -0.28017,0.235598 -0.28017,0.783206 0,0.522137 0.28653,0.808676 0.29291,0.286539 0.81505,0.286539 z m 9.42394,1.13342 q -1.05064,0 -1.64919,-0.216496 -0.59854,-0.216496 -0.84688,-0.745001 -0.24196,-0.528505 -0.24196,-1.451796 v -3.311116 h -1.82112 V 87.897 h 1.82112 v -1.948464 l 1.86568,-0.827778 V 87.897 h 2.43877 v 1.432694 h -2.43877 v 3.400261 q 0,0.471197 0.2356,0.681326 0.24197,0.210128 0.77047,0.210128 h 1.4327 v 1.432694 z m 5.45698,-8.003984 q -0.19103,0 -0.19103,-0.191026 V 85.06345 q 0,-0.191026 0.19103,-0.191026 h 1.48363 q 0.19103,0 0.19103,0.191026 v 1.795643 q 0,0.191026 -0.19103,0.191026 z m 2.29868,8.054924 q -1.32445,0 -1.91026,-0.69406 -0.57945,-0.700428 -0.57945,-2.279576 v -2.801713 h -1.5091 V 87.897 h 3.37479 v 4.234407 q 0,0.827779 0.26107,1.184361 0.26743,0.356581 0.88508,0.356581 h 1.49001 v 1.432694 z m 6.60312,0.108248 q -1.01244,0 -1.75744,-0.452094 -0.73863,-0.458462 -1.13979,-1.298976 -0.40115,-0.840514 -0.40115,-1.986669 0,-1.146155 0.40115,-1.986669 0.40753,-0.846882 1.15253,-1.305344 0.75136,-0.458462 1.77654,-0.458462 1.01243,0 1.7447,0.452095 0.73227,0.445727 1.12705,1.279873 0.40116,0.834146 0.40116,1.980302 0,1.165257 -0.40752,2.012139 -0.40116,0.846881 -1.13979,1.305343 -0.73864,0.458462 -1.75744,0.458462 z m 0.006,-1.515472 q 0.65585,0 1.04427,-0.598547 0.38842,-0.604916 0.38842,-1.630088 0,-1.031539 -0.38842,-1.630087 -0.38842,-0.598548 -1.04427,-0.598548 -0.66223,0 -1.05065,0.604915 -0.38841,0.598548 -0.38841,1.62372 0,1.025172 0.38841,1.630088 0.38842,0.598547 1.05065,0.598547 z M 158.85824,87.897 h 1.66829 l 0.18466,1.069745 q 0.1974,-0.598548 0.67496,-0.916924 0.48393,-0.324744 1.17163,-0.324744 0.99333,0 1.5091,0.681326 0.51577,0.681325 0.51577,1.993036 v 4.629194 h -1.85295 v -4.342655 q 0,-0.751368 -0.2165,-1.095215 -0.21012,-0.350214 -0.65585,-0.350214 -0.54124,0 -0.84688,0.458462 -0.29928,0.458462 -0.29928,1.248036 v 4.081586 h -1.85295 z m 9.5322,-2.375088 h 2.29867 l 2.56612,9.506721 h -1.87842 l -0.58582,-2.349618 h -2.51517 l -0.57308,2.349618 h -1.87842 z m 2.03761,5.609793 -0.89146,-3.89056 -0.88509,3.89056 z m 6.74957,6.596761 q -1.20983,0 -2.34325,-0.350215 v -1.712865 q 1.03154,0.573078 2.15222,0.573078 0.83415,0 1.20984,-0.369317 0.38205,-0.369317 0.38205,-1.165258 v -0.770471 q -0.54761,1.00607 -1.80838,1.00607 -0.75137,0 -1.26714,-0.305642 -0.5094,-0.312009 -0.82141,-0.821411 -0.31201,-0.51577 -0.4521,-1.139788 -0.14008,-0.624018 -0.14008,-1.260771 0,-0.624017 0.13372,-1.267138 0.13372,-0.649488 0.43299,-1.203463 0.30564,-0.553975 0.80231,-0.891454 0.50303,-0.337479 1.2353,-0.337479 1.31171,0 1.88479,1.095215 L 178.76314,87.897 h 1.68102 v 6.596761 q 0,1.712865 -0.77047,2.470601 -0.77047,0.764104 -2.49607,0.764104 z m 0.0828,-4.266245 q 0.57944,0 0.94876,-0.59218 0.36932,-0.592181 0.36932,-1.52184 0,-0.929659 -0.36932,-1.515472 -0.36295,-0.59218 -0.94239,-0.59218 -0.57945,0 -0.94877,0.59218 -0.36294,0.585813 -0.36294,1.515472 0,0.929659 0.36294,1.52184 0.36295,0.59218 0.9424,0.59218 z m 7.97851,1.75107 q -1.01243,0 -1.75743,-0.452094 -0.73864,-0.458462 -1.13979,-1.298976 -0.40116,-0.840514 -0.40116,-1.986669 0,-1.146155 0.40116,-1.986669 0.40752,-0.846882 1.15252,-1.305344 0.75137,-0.458462 1.77654,-0.458462 1.01244,0 1.74471,0.452095 0.73226,0.445727 1.12705,1.279873 0.40115,0.834146 0.40115,1.980302 0,1.165257 -0.40752,2.012139 -0.40115,0.846881 -1.13979,1.305343 -0.73863,0.458462 -1.75744,0.458462 z m 0.006,-1.515472 q 0.65586,0 1.04428,-0.598547 0.38842,-0.604916 0.38842,-1.630088 0,-1.031539 -0.38842,-1.630087 -0.38842,-0.598548 -1.04428,-0.598548 -0.66222,0 -1.05064,0.604915 -0.38842,0.598548 -0.38842,1.62372 0,1.025172 0.38842,1.630088 0.38842,0.598547 1.05064,0.598547 z"
        style="font-weight:bold;font-size:13.0407px;font-family:Hack;-inkscape-font-specification:'Hack, Bold';fill:#00007f;stroke-width:0.264583"
      />
    </g>
  </g>
</svg>